<?xml version="1.0" encoding="iso-8859-1"?>
<!-- Generator: Adobe Illustrator 21.1.0, SVG Export Plug-In . SVG Version: 6.00 Build 0)  -->
<svg version="1.1" id="Layer_1" xmlns="http://www.w3.org/2000/svg" xmlns:xlink="http://www.w3.org/1999/xlink" x="0px" y="0px"
	 viewBox="0 0 60 55" style="enable-background:new 0 0 60 55;" xml:space="preserve">
<ellipse style="fill:#81CFCB;" cx="36" cy="17.625" rx="13.75" ry="12.375"/>
<g>
	<g>
		<path style="fill:#454546;" d="M23.271,35.032l8.734,2.648c-0.011,0.056-0.033,0.122-0.056,0.178
			c-0.234,0.634-0.712,0.99-1.491,1.113c-2.87,0.456-7.632,0.167-7.677,0.167c-0.734-0.045-1.368,0.512-1.413,1.246
			c-0.045,0.734,0.512,1.368,1.246,1.413c0.211,0.011,5.096,0.312,8.267-0.2c3.149-0.501,4.05-3.271,3.883-5.018
			c-0.056-0.545-0.423-1.001-0.946-1.157l-9.78-2.959c-4.829-1.457-10.125,1.235-10.347,1.346c-0.022,0.011-0.056,0.022-0.078,0.045
			l-9.735,5.886c-0.634,0.378-0.834,1.202-0.456,1.836c0.256,0.412,0.69,0.645,1.146,0.645c0.234,0,0.467-0.067,0.69-0.189
			l9.691-5.841C15.371,35.967,19.633,33.931,23.271,35.032z"/>
		<path style="fill:#454546;" d="M56.604,32.796c-0.768-1.402-3.16-3.638-6.787-2.036c-3.427,1.524-10.67,5.007-10.748,5.04
			c-0.668,0.323-0.946,1.113-0.623,1.78s1.124,0.946,1.78,0.623c0.078-0.033,7.276-3.505,10.67-5.007
			c0.968-0.434,1.78-0.434,2.481,0c0.022,0.011,0.033,0.022,0.056,0.033L35.287,46.525c-1.291,0.946-2.926,1.335-4.495,1.09
			l-16.188-2.581c-0.378-0.056-0.768,0.045-1.068,0.289l-4.094,3.416c-0.567,0.467-0.645,1.313-0.167,1.88
			c0.267,0.312,0.645,0.478,1.024,0.478c0.3,0,0.601-0.1,0.857-0.312l3.627-3.026l15.598,2.492c2.27,0.367,4.639-0.211,6.498-1.569
			l19.359-14.174C56.76,34.109,56.927,33.386,56.604,32.796z"/>
	</g>
</g>
<path style="fill:#454546;" d="M36.333,32c-8.271,0-15-6.729-15-15s6.729-15,15-15c8.271,0,15,6.729,15,15S44.604,32,36.333,32z
	 M36.333,4c-7.168,0-13,5.832-13,13s5.832,13,13,13s13-5.832,13-13S43.501,4,36.333,4z"/>
<g>
	<path d="M40.445,12.985h-2.063c-0.138-1.246-0.717-2.144-1.465-2.693h3.529c0.168,0,0.305-0.137,0.305-0.305
		c0-0.168-0.137-0.305-0.305-0.305h-8.674c-0.168,0-0.305,0.137-0.305,0.305c0,0.168,0.137,0.305,0.305,0.305h3.687
		c0.985,0.182,2.107,1.002,2.314,2.693h-6.001c-0.168,0-0.305,0.137-0.305,0.305c0,0.168,0.137,0.305,0.305,0.305h6.041
		c-0.012,0.848-0.302,1.535-0.871,2.042c-1.612,1.433-4.904,1.067-4.936,1.064c-0.122-0.012-0.246,0.049-0.305,0.16
		c-0.059,0.111-0.044,0.246,0.038,0.342l5.788,6.701c0.06,0.07,0.145,0.105,0.231,0.105c0.071,0,0.142-0.024,0.199-0.074
		c0.127-0.11,0.141-0.302,0.031-0.43l-5.313-6.151c1.146,0.03,3.343-0.081,4.67-1.261c0.705-0.626,1.064-1.469,1.077-2.498h2.023
		c0.168,0,0.305-0.137,0.305-0.305C40.75,13.122,40.614,12.985,40.445,12.985z"/>
</g>
</svg>
